# xmcd CD database file
#
# Track frame offsets:
#	150
#	36461
#	51592
#	66531
#	80765
#	94574
#	112440
#	129467
#	145063
#	162824
#	180426
#	202003
#	217801
#	232055
#	250365
#	268049
#	282543
#	297295
#	314273
#	328470
#
# Disc length: 4620 seconds
#
# Revision: 0
# Processed by: cddbd v1.5.2PL0 Copyright (c) Steve Scherf et al.
# Submitted via: CDex 1.70beta3
#
DISCID=4c120a14
DTITLE=KING TWIN BEST SERIES - MINYOU BEST zyou CD01
DYEAR=2010
DGENRE=Country
TTITLE0=01　江差追分
TTITLE1=02　北海盆歌
TTITLE2=03　北海鱈つり唄
TTITLE3=04　二声上げ音頭
TTITLE4=05　ソーラン節
TTITLE5=06　道南口説
TTITLE6=07　十勝馬唄
TTITLE7=08　津軽よされ節
TTITLE8=09　十三の砂山
TTITLE9=10　津軽じょんから節
TTITLE10=11　津軽あいや節
TTITLE11=12　俵積唄
TTITLE12=13　鰺ヶ沢甚句
TTITLE13=14　津軽山唄
TTITLE14=15　南部じょんから節
TTITLE15=16　南部よしゃれ節
TTITLE16=17　からめ節
TTITLE17=18　沢内甚句
TTITLE18=19　秋田船方節
TTITLE19=20　本荘追分
EXTD=YEAR: 2010
EXTT0=
EXTT1=
EXTT2=
EXTT3=
EXTT4=
EXTT5=
EXTT6=
EXTT7=
EXTT8=
EXTT9=
EXTT10=
EXTT11=
EXTT12=
EXTT13=
EXTT14=
EXTT15=
EXTT16=
EXTT17=
EXTT18=
EXTT19=
PLAYORDER=
